<svg xmlns="http://www.w3.org/2000/svg" width="58" height="58" viewBox="0 0 58 58" version="1.1"><path d="M 15.007 12.787 C 0.044 13.527, 0.197 22.585, 15.322 31.448 L 20.053 34.221 17.777 36.603 C 16.524 37.913, 14.150 40.617, 12.500 42.612 C 10.850 44.608, 7.934 47.747, 6.019 49.589 C 0.681 54.725, 1.850 55.037, 27.380 55.298 C 49.243 55.520, 50.167 55.451, 52.047 53.450 C 56.297 48.926, 52.894 42.777, 42.943 37 C 40.574 35.625, 37.121 33.196, 35.268 31.602 L 31.899 28.704 38.029 25.102 C 60.633 11.820, 61.129 12.942, 32.500 12.598 C 26.450 12.525, 18.578 12.610, 15.007 12.787" stroke="none" fill="#00ffff" fill-rule="evenodd"/></svg>